ik trial
nRows=4
nColumns=135

# SIMM Motion File Header:
name ik trial
datacolumns 135
datarows 4
otherdata 1
range 1.03333300 1.05833300
endheader
time	pelvis_tx	pelvis_ty	pelvis_tz	pelvis_tilt	pelvis_list	pelvis_rotation	hip_flexion_r	hip_adduction_r	hip_rotation_r	knee_angle_r	ankle_angle_r	hip_flexion_l	hip_adduction_l	hip_rotation_l	knee_angle_l	ankle_angle_l	lumbar_extension	lumbar_bending	lumbar_rotation	subtalar_angle_r	mtp_angle_r	subtalar_angle_l	mtp_angle_l	RASI_tx	RASI_ty	RASI_tz	LASI_tx	LASI_ty	LASI_tz	SACR_tx	SACR_ty	SACR_tz	RTH1_tx	RTH1_ty	RTH1_tz	RTH2_tx	RTH2_ty	RTH2_tz	RTH3_tx	RTH3_ty	RTH3_tz	RTB1_tx	RTB1_ty	RTB1_tz	RTB2_tx	RTB2_ty	RTB2_tz	RTB3_tx	RTB3_ty	RTB3_tz	RCAL_tx	RCAL_ty	RCAL_tz	RTOE_tx	RTOE_ty	RTOE_tz	RMT5_tx	RMT5_ty	RMT5_tz	LTH1_tx	LTH1_ty	LTH1_tz	LTH2_tx	LTH2_ty	LTH2_tz	LTH3_tx	LTH3_ty	LTH3_tz	LTB1_tx	LTB1_ty	LTB1_tz	LTB2_tx	LTB2_ty	LTB2_tz	LTB3_tx	LTB3_ty	LTB3_tz	LCAL_tx	LCAL_ty	LCAL_tz	LTOE_tx	LTOE_ty	LTOE_tz	LMT5_tx	LMT5_ty	LMT5_tz	LPSI_tx	LPSI_ty	LPSI_tz	RPSI_tx	RPSI_ty	RPSI_tz	RACR_tx	RACR_ty	RACR_tz	LACR_tx	LACR_ty	LACR_tz	RElbow_tx	RElbow_ty	RElbow_tz	LElbow_tx	LElbow_ty	LElbow_tz	RWrist_tx	RWrist_ty	RWrist_tz	LWrist_tx	LWrist_ty	LWrist_tz	C7_tx	C7_ty	C7_tz	CLAV_tx	CLAV_ty	CLAV_tz	ground_force_vx	ground_force_vy	ground_force_vz	ground_force_px	ground_force_py	ground_force_pz	ground_torque_x	ground_torque_y	ground_torque_z	ground_force_vx	ground_force_vy	ground_force_vz	ground_force_px	ground_force_py	ground_force_pz	ground_torque_x	ground_torque_y	ground_torque_z
      1.03333300	     -0.13198690	      0.97852234	     -0.26533875	     18.00803347	     -3.47680260	     11.16637025	     11.25088917	      5.32202558	      0.99230677	    -24.55712600	     -2.84099185	    -30.41394638	    -10.04565573	      0.69445097	    -43.57022253	    -23.41605813	    -25.05636100	     10.80655519	     -9.20916982	      0.00000000	      0.00000000	      0.00000000	      0.00000000	     -0.09217496	      1.00749397	     -0.15160123	     -0.12914329	      0.98801952	     -0.38067978	     -0.29353476	      1.02083580	     -0.24408883	     -0.08879817	      0.84697569	     -0.08362305	      0.02123415	      0.62321981	     -0.11916830	      0.01808519	      0.77809863	     -0.15613314	      0.07222195	      0.44843638	     -0.12590832	      0.06981212	      0.17269941	     -0.14907100	      0.08953374	      0.28641233	     -0.15431512	     -0.00229990	      0.06777265	     -0.19645070	      0.21382551	      0.07922532	     -0.22271209	      0.17725297	      0.03909378	     -0.13893334	     -0.22210166	      0.77842691	     -0.42120882	     -0.27567250	      0.56710851	     -0.41625200	     -0.18604106	      0.68396204	     -0.41208647	     -0.37716154	      0.40180611	     -0.41039171	     -0.60211815	      0.27999357	     -0.35013069	     -0.45503324	      0.32556552	     -0.37565104	     -0.69839530	      0.29590551	     -0.28302936	     -0.64217537	      0.08769550	     -0.29316779	     -0.70577472	      0.12444237	     -0.35892389	     -0.30107735	      1.01733970	     -0.29311346	     -0.28599217	      1.02433189	     -0.19506419	     -0.21137413	      1.44592077	     -0.05949547	     -0.20648509	      1.47955743	     -0.40204497	     -0.32659141	      1.10991933	      0.01420537	     -0.13362437	      1.13500666	     -0.50682385	     -0.34756871	      0.85114642	      0.08813434	      0.09186960	      1.00119272	     -0.46824418	     -0.28525544	      1.49121145	     -0.23545174	     -0.12495872	      1.40637382	     -0.22937068	   -208.77820000	    772.25212200	    -51.02889300	      0.07935400	     -0.00600000	     -0.18833700	      0.00000000	     -1.84944500	      0.00000000	      0.00000000	      0.00000000	      0.00000000	      0.00000000	      0.00000000	      0.00000000	      0.00000000	      0.00000000	      0.00000000
      1.04166700	     -0.11636795	      0.97937346	     -0.26461707	     18.23601748	     -3.97610521	     11.16310215	     10.82296195	      6.29980103	      1.41525157	    -25.73012433	     -1.85887780	    -28.40181245	    -10.76438752	      0.34290466	    -47.34609034	    -25.46399843	    -25.25459377	     11.29155354	     -8.87019032	      0.00000000	      0.00000000	      0.00000000	      0.00000000	     -0.07664428	      1.00952100	     -0.15077974	     -0.11313706	      0.98888936	     -0.37997085	     -0.27792683	      1.02135293	     -0.24373852	     -0.07259174	      0.84856511	     -0.08381654	      0.03479122	      0.62336359	     -0.11986698	      0.03256303	      0.77866426	     -0.15770232	      0.08404509	      0.44756698	     -0.12730039	      0.07410845	      0.17216007	     -0.15026119	      0.09677102	      0.28520954	     -0.15615922	     -0.00173234	      0.06822926	     -0.19676508	      0.21509898	      0.07680336	     -0.22376807	      0.17797600	      0.03861099	     -0.13921256	     -0.20211367	      0.77819601	     -0.42117963	     -0.24976169	      0.56537710	     -0.41736549	     -0.16368117	      0.68455381	     -0.41342819	     -0.34806568	      0.40064944	     -0.41153049	     -0.57609260	      0.28518116	     -0.35107446	     -0.42782257	      0.32648591	     -0.37648436	     -0.66808846	      0.30492272	     -0.28218547	     -0.62633878	      0.09216696	     -0.29674078	     -0.68934817	      0.13505165	     -0.35935867	     -0.28537748	      1.01768507	     -0.29282500	     -0.27047617	      1.02502079	     -0.19465204	     -0.19533884	      1.44713743	     -0.05942003	     -0.19089349	      1.48084897	     -0.40177835	     -0.30733351	      1.10965757	      0.01457549	     -0.12296938	      1.13503456	     -0.50638103	     -0.32289221	      0.84988726	      0.08741643	      0.09980827	      0.99576380	     -0.47010397	     -0.26981001	      1.49249004	     -0.23522439	     -0.10950399	      1.40740510	     -0.22947654	   -213.40655800	    819.36959400	    -53.58377100	      0.08116200	     -0.00600000	     -0.18991400	      0.00000000	     -2.35237000	      0.00000000	      0.00000000	      0.00000000	      0.00000000	      0.00000000	      0.00000000	      0.00000000	      0.00000000	      0.00000000	      0.00000000
      1.05000000	     -0.10090796	      0.98033315	     -0.26386797	     18.42320757	     -4.40673037	     11.23292647	     10.28152038	      7.17557105	      1.51881209	    -26.62531494	     -0.76516955	    -26.37701451	    -11.43194660	      0.22941679	    -50.83894210	    -26.53003818	    -25.40733230	     11.68744581	     -8.58905024	      0.00000000	      0.00000000	      0.00000000	      0.00000000	     -0.06117385	      1.01152833	     -0.15007060	     -0.09745230	      0.98986959	     -0.37931656	     -0.26244529	      1.02216489	     -0.24324526	     -0.05695157	      0.84987548	     -0.08368020	      0.04654374	      0.62267519	     -0.12044981	      0.04691243	      0.77817252	     -0.15744656	      0.09510402	      0.44652817	     -0.12905196	      0.07783166	      0.17165557	     -0.15163990	      0.10338472	      0.28397846	     -0.15841837	     -0.00142111	      0.06853480	     -0.19708498	      0.21599864	      0.07501896	     -0.22482380	      0.17854184	      0.03855733	     -0.13954058	     -0.18245569	      0.77842213	     -0.42115245	     -0.22422139	      0.56434467	     -0.41829353	     -0.14169619	      0.68558800	     -0.41468522	     -0.31884638	      0.39982628	     -0.41264142	     -0.54938582	      0.29011071	     -0.35186109	     -0.40011427	      0.32756774	     -0.37714022	     -0.63825771	      0.31208143	     -0.28073038	     -0.60715620	      0.09705863	     -0.30083883	     -0.66979937	      0.14475688	     -0.36045966	     -0.26984134	      1.01841894	     -0.29237824	     -0.25504923	      1.02591087	     -0.19411227	     -0.17935646	      1.44845896	     -0.05942167	     -0.17564669	      1.48211642	     -0.40176089	     -0.28784433	      1.10937475	      0.01503946	     -0.11268340	      1.13495456	     -0.50598749	     -0.29762958	      0.84869199	      0.08667002	      0.10712150	      0.99002646	     -0.47217129	     -0.25448992	      1.49398434	     -0.23502302	     -0.09420165	      1.40846025	     -0.22975212	   -212.26900000	    859.81883300	    -54.50340800	      0.08506300	     -0.00600000	     -0.19102700	      0.00000000	     -2.68405300	      0.00000000	      0.00000000	      0.00000000	      0.00000000	      0.00000000	      0.00000000	      0.00000000	      0.00000000	      0.00000000	      0.00000000
      1.05833300	     -0.08558330	      0.98153487	     -0.26315113	     18.62396864	     -4.73814305	     11.35019970	      9.59225185	      7.91203184	      1.36697279	    -27.32351941	      0.39800769	    -24.41489280	    -11.99738443	      0.29516140	    -54.04805753	    -26.37023955	    -25.57687795	     11.97600781	     -8.35393010	      0.00000000	      0.00000000	      0.00000000	      0.00000000	     -0.04578515	      1.01362109	     -0.14951616	     -0.08209144	      0.99102005	     -0.37875521	     -0.24710986	      1.02336929	     -0.24268333	     -0.04194023	      0.85092705	     -0.08331970	      0.05721326	      0.62157746	     -0.12102084	      0.06122162	      0.77697754	     -0.15577849	      0.10532161	      0.44542453	     -0.13089791	      0.08094732	      0.17119668	     -0.15298147	      0.10935466	      0.28276407	     -0.16070496	     -0.00128464	      0.06871542	     -0.19735874	      0.21661551	      0.07373909	     -0.22558599	      0.17891587	      0.03865591	     -0.13975681	     -0.16314646	      0.77910602	     -0.42112343	     -0.19894431	      0.56406030	     -0.41913208	     -0.11995009	      0.68707585	     -0.41573942	     -0.28975738	      0.39976865	     -0.41381372	     -0.52211256	      0.29489123	     -0.35245124	     -0.37212833	      0.32914127	     -0.37778419	     -0.60940569	      0.31758636	     -0.27890389	     -0.58410659	      0.10217210	     -0.30516848	     -0.64663551	      0.15315781	     -0.36234195	     -0.25448772	      1.01962158	     -0.29184729	     -0.23973199	      1.02711703	     -0.19351937	     -0.16346608	      1.44992850	     -0.05949316	     -0.16072746	      1.48342945	     -0.40200354	     -0.26811663	      1.10912492	      0.01556867	     -0.10275923	      1.13483262	     -0.50561430	     -0.27178300	      0.84764771	      0.08585293	      0.11379095	      0.98405063	     -0.47445231	     -0.23930990	      1.49570149	     -0.23485664	     -0.07905371	      1.40966945	     -0.23016939	   -207.50028800	    891.26201600	    -53.78557200	      0.08937800	     -0.00600000	     -0.19123500	      0.00000000	     -2.88951500	      0.00000000	      0.00000000	      0.00000000	      0.00000000	      0.00000000	      0.00000000	      0.00000000	      0.00000000	      0.00000000	      0.00000000
